<svg width="1024" height="1024" viewBox="0 0 1024 1024" fill="none" xmlns="http://www.w3.org/2000/svg">
<rect width="1024" height="1024" rx="512" fill="#1A1A1A"/>
<g filter="url(#filter0_di_1_15)">
<path d="M132.648 468L94.5515 337.091H129.516L149.267 422.872H150.354L172.918 337.091H201.426L223.99 423.064H225.077L244.892 337.091H279.793L241.76 468H211.27L187.684 388.611H186.661L163.074 468H132.648ZM292.865 468V369.818H324.122V468H292.865ZM308.525 358.376C304.136 358.376 300.365 356.928 297.211 354.03C294.058 351.089 292.481 347.553 292.481 343.419C292.481 339.328 294.058 335.834 297.211 332.936C300.365 329.996 304.136 328.526 308.525 328.526C312.957 328.526 316.728 329.996 319.839 332.936C322.993 335.834 324.569 339.328 324.569 343.419C324.569 347.553 322.993 351.089 319.839 354.03C316.728 356.928 312.957 358.376 308.525 358.376ZM372.206 442.24L372.334 404.974H376.68L404.294 369.818H439.706L398.669 420.188H390.423L372.206 442.24ZM344.017 468V337.091H375.274V468H344.017ZM404.997 468L379.301 427.219L399.884 405.038L441.112 468H404.997ZM450.892 468V369.818H482.149V468H450.892ZM466.553 358.376C462.163 358.376 458.392 356.928 455.239 354.03C452.085 351.089 450.509 347.553 450.509 343.419C450.509 339.328 452.085 335.834 455.239 332.936C458.392 329.996 462.163 328.526 466.553 328.526C470.984 328.526 474.756 329.996 477.866 332.936C481.02 335.834 482.597 339.328 482.597 343.419C482.597 347.553 481.02 351.089 477.866 354.03C474.756 356.928 470.984 358.376 466.553 358.376ZM502.044 468V337.091H533.685V442.304H588.145V468H502.044ZM650.356 469.854C640.043 469.854 631.18 467.744 623.765 463.526C616.393 459.264 610.704 453.341 606.698 445.756C602.735 438.128 600.754 429.286 600.754 419.229C600.754 409.129 602.735 400.287 606.698 392.702C610.704 385.074 616.393 379.151 623.765 374.932C631.18 370.67 640.043 368.54 650.356 368.54C660.668 368.54 669.511 370.67 676.883 374.932C684.298 379.151 689.987 385.074 693.95 392.702C697.955 400.287 699.958 409.129 699.958 419.229C699.958 429.286 697.955 438.128 693.95 445.756C689.987 453.341 684.298 459.264 676.883 463.526C669.511 467.744 660.668 469.854 650.356 469.854ZM650.548 446.267C654.298 446.267 657.472 445.116 660.072 442.815C662.671 440.514 664.653 437.318 666.016 433.227C667.423 429.136 668.126 424.406 668.126 419.037C668.126 413.582 667.423 408.81 666.016 404.719C664.653 400.628 662.671 397.432 660.072 395.131C657.472 392.83 654.298 391.679 650.548 391.679C646.67 391.679 643.388 392.83 640.704 395.131C638.062 397.432 636.038 400.628 634.631 404.719C633.268 408.81 632.586 413.582 632.586 419.037C632.586 424.406 633.268 429.136 634.631 433.227C636.038 437.318 638.062 440.514 640.704 442.815C643.388 445.116 646.67 446.267 650.548 446.267ZM761.801 469.854C751.489 469.854 742.625 467.744 735.21 463.526C727.838 459.264 722.149 453.341 718.143 445.756C714.18 438.128 712.199 429.286 712.199 419.229C712.199 409.129 714.18 400.287 718.143 392.702C722.149 385.074 727.838 379.151 735.21 374.932C742.625 370.67 751.489 368.54 761.801 368.54C772.114 368.54 780.956 370.67 788.328 374.932C795.743 379.151 801.432 385.074 805.395 392.702C809.401 400.287 811.403 409.129 811.403 419.229C811.403 429.286 809.401 438.128 805.395 445.756C801.432 453.341 795.743 459.264 788.328 463.526C780.956 467.744 772.114 469.854 761.801 469.854ZM761.993 446.267C765.743 446.267 768.918 445.116 771.517 442.815C774.116 440.514 776.098 437.318 777.462 433.227C778.868 429.136 779.571 424.406 779.571 419.037C779.571 413.582 778.868 408.81 777.462 404.719C776.098 400.628 774.116 397.432 771.517 395.131C768.918 392.83 765.743 391.679 761.993 391.679C758.115 391.679 754.834 392.83 752.149 395.131C749.507 397.432 747.483 400.628 746.077 404.719C744.713 408.81 744.031 413.582 744.031 419.037C744.031 424.406 744.713 429.136 746.077 433.227C747.483 437.318 749.507 440.514 752.149 442.815C754.834 445.116 758.115 446.267 761.993 446.267ZM827.415 504.818V369.818H858.353V386.629H859.312C860.59 383.646 862.401 380.77 864.745 378C867.131 375.23 870.157 372.972 873.822 371.224C877.529 369.435 881.961 368.54 887.117 368.54C893.935 368.54 900.306 370.33 906.229 373.909C912.195 377.489 917.011 383.007 920.675 390.464C924.34 397.922 926.173 407.425 926.173 418.973C926.173 430.095 924.404 439.406 920.867 446.906C917.373 454.406 912.643 460.031 906.677 463.781C900.754 467.531 894.17 469.406 886.925 469.406C881.982 469.406 877.7 468.597 874.077 466.977C870.455 465.358 867.408 463.227 864.937 460.585C862.508 457.943 860.633 455.109 859.312 452.084H858.673V504.818H827.415ZM858.033 418.909C858.033 424.193 858.737 428.795 860.143 432.716C861.592 436.636 863.658 439.683 866.343 441.857C869.07 443.987 872.33 445.053 876.123 445.053C879.958 445.053 883.218 443.987 885.903 441.857C888.587 439.683 890.612 436.636 891.975 432.716C893.381 428.795 894.085 424.193 894.085 418.909C894.085 413.625 893.381 409.044 891.975 405.166C890.612 401.288 888.587 398.284 885.903 396.153C883.261 394.023 880.001 392.957 876.123 392.957C872.288 392.957 869.028 394.001 866.343 396.089C863.658 398.178 861.592 401.161 860.143 405.038C858.737 408.916 858.033 413.54 858.033 418.909ZM301.518 597.854C300.794 595.169 299.728 592.804 298.322 590.759C296.916 588.67 295.19 586.902 293.144 585.453C291.099 584.004 288.755 582.918 286.113 582.193C283.471 581.426 280.573 581.043 277.42 581.043C271.07 581.043 265.573 582.577 260.928 585.645C256.326 588.713 252.768 593.187 250.254 599.068C247.74 604.906 246.482 612.001 246.482 620.354C246.482 628.749 247.697 635.908 250.126 641.831C252.555 647.754 256.07 652.271 260.673 655.382C265.275 658.493 270.857 660.048 277.42 660.048C283.215 660.048 288.116 659.111 292.122 657.236C296.17 655.318 299.238 652.612 301.326 649.118C303.414 645.624 304.458 641.511 304.458 636.781L310.339 637.484H278.507V614.409H334.948V631.732C334.948 643.45 332.455 653.486 327.47 661.838C322.526 670.19 315.708 676.604 307.015 681.078C298.365 685.553 288.414 687.79 277.164 687.79C264.678 687.79 253.705 685.084 244.245 679.672C234.785 674.26 227.413 666.547 222.129 656.533C216.845 646.476 214.203 634.544 214.203 620.737C214.203 609.999 215.801 600.474 218.997 592.165C222.193 583.812 226.646 576.739 232.356 570.943C238.109 565.148 244.757 560.759 252.299 557.776C259.884 554.793 268.045 553.301 276.781 553.301C284.366 553.301 291.419 554.388 297.938 556.561C304.501 558.734 310.296 561.803 315.325 565.766C320.396 569.729 324.508 574.438 327.661 579.892C330.815 585.347 332.775 591.334 333.542 597.854H301.518ZM381.275 687.662C375.01 687.662 369.449 686.618 364.591 684.53C359.776 682.399 355.962 679.203 353.15 674.942C350.38 670.638 348.995 665.247 348.995 658.77C348.995 653.315 349.954 648.713 351.871 644.963C353.789 641.213 356.431 638.166 359.797 635.822C363.164 633.479 367.042 631.71 371.431 630.517C375.82 629.281 380.508 628.45 385.493 628.024C391.076 627.513 395.572 626.98 398.981 626.426C402.39 625.83 404.861 624.999 406.395 623.933C407.972 622.825 408.76 621.27 408.76 619.267V618.947C408.76 615.666 407.631 613.131 405.373 611.341C403.114 609.551 400.067 608.656 396.232 608.656C392.099 608.656 388.775 609.551 386.26 611.341C383.746 613.131 382.148 615.602 381.466 618.756L352.638 617.733C353.491 611.767 355.685 606.44 359.222 601.753C362.802 597.023 367.702 593.315 373.924 590.631C380.188 587.903 387.709 586.54 396.488 586.54C402.752 586.54 408.526 587.286 413.81 588.777C419.094 590.226 423.697 592.357 427.617 595.169C431.537 597.939 434.563 601.348 436.694 605.396C438.867 609.445 439.954 614.068 439.954 619.267V686H410.55V672.321H409.783C408.036 675.645 405.799 678.457 403.072 680.759C400.387 683.06 397.212 684.786 393.547 685.936C389.925 687.087 385.834 687.662 381.275 687.662ZM390.927 667.207C394.293 667.207 397.319 666.526 400.003 665.162C402.731 663.798 404.904 661.923 406.523 659.537C408.143 657.108 408.952 654.295 408.952 651.099V641.767C408.057 642.236 406.971 642.662 405.692 643.045C404.457 643.429 403.093 643.791 401.601 644.132C400.11 644.473 398.576 644.771 396.999 645.027C395.422 645.283 393.91 645.517 392.461 645.73C389.52 646.199 387.006 646.923 384.918 647.903C382.873 648.884 381.296 650.162 380.188 651.739C379.123 653.273 378.59 655.105 378.59 657.236C378.59 660.474 379.741 662.946 382.042 664.651C384.385 666.355 387.347 667.207 390.927 667.207ZM490.323 555.091V686H459.066V555.091H490.323ZM537.896 687.662C531.632 687.662 526.07 686.618 521.213 684.53C516.397 682.399 512.583 679.203 509.771 674.942C507.001 670.638 505.616 665.247 505.616 658.77C505.616 653.315 506.575 648.713 508.492 644.963C510.41 641.213 513.052 638.166 516.419 635.822C519.785 633.479 523.663 631.71 528.052 630.517C532.441 629.281 537.129 628.45 542.115 628.024C547.697 627.513 552.193 626.98 555.602 626.426C559.011 625.83 561.482 624.999 563.017 623.933C564.593 622.825 565.382 621.27 565.382 619.267V618.947C565.382 615.666 564.252 613.131 561.994 611.341C559.735 609.551 556.688 608.656 552.853 608.656C548.72 608.656 545.396 609.551 542.882 611.341C540.367 613.131 538.769 615.602 538.088 618.756L509.259 617.733C510.112 611.767 512.306 606.44 515.843 601.753C519.423 597.023 524.323 593.315 530.545 590.631C536.809 587.903 544.33 586.54 553.109 586.54C559.373 586.54 565.147 587.286 570.431 588.777C575.715 590.226 580.318 592.357 584.238 595.169C588.159 597.939 591.184 601.348 593.315 605.396C595.488 609.445 596.575 614.068 596.575 619.267V686H567.171V672.321H566.404C564.657 675.645 562.42 678.457 559.693 680.759C557.008 683.06 553.833 684.786 550.169 685.936C546.546 687.087 542.455 687.662 537.896 687.662ZM547.548 667.207C550.914 667.207 553.94 666.526 556.624 665.162C559.352 663.798 561.525 661.923 563.144 659.537C564.764 657.108 565.573 654.295 565.573 651.099V641.767C564.678 642.236 563.592 642.662 562.313 643.045C561.078 643.429 559.714 643.791 558.222 644.132C556.731 644.473 555.197 644.771 553.62 645.027C552.044 645.283 550.531 645.517 549.082 645.73C546.142 646.199 543.627 646.923 541.539 647.903C539.494 648.884 537.917 650.162 536.809 651.739C535.744 653.273 535.211 655.105 535.211 657.236C535.211 660.474 536.362 662.946 538.663 664.651C541.007 666.355 543.968 667.207 547.548 667.207ZM642.278 587.818L658.45 620.162L675.197 587.818H706.71L679.288 636.909L707.732 686H676.475L658.45 653.401L640.872 686H609.167L637.676 636.909L610.573 587.818H642.278ZM740.092 722.818C736.342 722.818 732.805 722.52 729.481 721.923C726.157 721.369 723.302 720.624 720.916 719.686L727.819 696.994C730.888 698.017 733.657 698.614 736.129 698.784C738.643 698.955 740.795 698.55 742.585 697.57C744.417 696.632 745.824 694.949 746.804 692.52L748.018 689.58L713.118 587.818H745.845L763.934 657.875H764.957L783.302 587.818H816.221L779.211 695.396C777.422 700.766 774.886 705.496 771.605 709.587C768.366 713.72 764.169 716.959 759.013 719.303C753.899 721.646 747.592 722.818 740.092 722.818Z" fill="white"/>
</g>
<defs>
<filter id="filter0_di_1_15" x="86.5515" y="324.526" width="847.621" height="410.292" filterUnits="userSpaceOnUse" color-interpolation-filters="sRGB">
<feFlood flood-opacity="0" result="BackgroundImageFix"/>
<feColorMatrix in="SourceAlpha" type="matrix" values="0 0 0 0 0 0 0 0 0 0 0 0 0 0 0 0 0 0 127 0" result="hardAlpha"/>
<feMorphology radius="4" operator="dilate" in="SourceAlpha" result="effect1_dropShadow_1_15"/>
<feOffset dy="4"/>
<feGaussianBlur stdDeviation="2"/>
<feComposite in2="hardAlpha" operator="out"/>
<feColorMatrix type="matrix" values="0 0 0 0 0 0 0 0 0 0 0 0 0 0 0 0 0 0 0.93 0"/>
<feBlend mode="normal" in2="BackgroundImageFix" result="effect1_dropShadow_1_15"/>
<feBlend mode="normal" in="SourceGraphic" in2="effect1_dropShadow_1_15" result="shape"/>
<feColorMatrix in="SourceAlpha" type="matrix" values="0 0 0 0 0 0 0 0 0 0 0 0 0 0 0 0 0 0 127 0" result="hardAlpha"/>
<feOffset dy="4"/>
<feGaussianBlur stdDeviation="2"/>
<feComposite in2="hardAlpha" operator="arithmetic" k2="-1" k3="1"/>
<feColorMatrix type="matrix" values="0 0 0 0 0 0 0 0 0 0 0 0 0 0 0 0 0 0 0.25 0"/>
<feBlend mode="normal" in2="shape" result="effect2_innerShadow_1_15"/>
</filter>
</defs>
</svg>
